<?xml version="1.0" encoding="UTF-8"?><svg id="uuid-dbd21951-176f-40da-b65e-c209dc271aff" xmlns="http://www.w3.org/2000/svg" xmlns:xlink="http://www.w3.org/1999/xlink" viewBox="0 0 375 361"><defs><style>.uuid-77e886df-f4cb-4db9-a9de-d6fca66071b9{fill:url(#uuid-50b40d09-e427-4e73-81c1-22c7ef3c4b47);}</style><linearGradient id="uuid-50b40d09-e427-4e73-81c1-22c7ef3c4b47" x1="262.55443" y1="112.72315" x2="148.17145" y2="239.36145" gradientUnits="userSpaceOnUse"><stop offset="0" stop-color="#1e47c4"/><stop offset=".16055" stop-color="#204cc1"/><stop offset=".3525" stop-color="#285abb"/><stop offset=".5605" stop-color="#3572b1"/><stop offset=".77981" stop-color="#4694a4"/><stop offset="1" stop-color="#5dbe93"/></linearGradient></defs><path class="uuid-77e886df-f4cb-4db9-a9de-d6fca66071b9" d="M279.40713,179.75518l-.00245-.63049-.17664,.00123c-.38762-28.41513-11.61874-54.69099-31.6645-74.04493-20.25919-19.56246-47.64517-30.33482-77.11521-30.33482-18.25118,0-35.29167,3.58915-50.64676,10.66687-3.98903,1.83751-6.72567,5.49535-7.31936,9.78491l-2.0166,14.59089c-.13248,.95433,.29562,1.85591,1.1187,2.3527,.82798,.49924,1.83505,.45631,2.62869-.11162,15.56607-11.19555,34.487-16.87244,56.23533-16.87244,50.39407,0,88.39662,36.75015,88.39662,85.48335,0,23.07556-8.85512,44.89504-24.9327,61.4412-.91998,.94697-1.87308,1.84855-2.92431,2.83599-3.60878,3.26286-7.46043,6.13443-11.45069,8.53496-11.36973,6.83607-24.43591,10.44975-37.78421,10.44975-17.66853,0-34.74091-6.36381-48.07327-17.91999-4.1853-3.62595-7.96948-7.74501-11.24952-12.24187-.18277-.24901-.24778-.55567-.184-.86355,.06379-.31279,.25759-.58388,.53236-.7458l107.45984-63.53875c3.3659-1.99084,5.13349-5.77134,4.50177-9.63281-2.67653-16.33763-19.67163-31.41058-35.07701-37.85658-20.60511-8.6196-42.59264-8.65395-61.90609-.09936-18.82525,8.33502-33.92397,24.23351-42.51536,44.76747-8.546,20.42602-8.48467,43.00479,.17173,63.57923,8.62206,20.49594,24.75729,36.55634,45.40165,45.20538,12.69573,6.17859,26.85116,9.44391,40.9379,9.44391,11.91681,0,24.03847-2.35024,35.05248-6.79804,4.81088-1.943,9.85115-4.56188,15.86414-8.24302,4.86854-2.98074,9.44759-6.48034,13.61203-10.39946,4.39996-4.14237,8.59752-8.98392,12.47739-14.39095,.34223-.47594,.85742-.52132,1.22909-.40111,.37781,.12021,.7826,.46367,.78382,1.06595l.06501,20.8578c.02821,9.06242,7.41014,16.4149,16.46765,16.4149h.05152c1.3076-.00491,2.36987-1.07331,2.36619-2.38214l-.31525-99.96875Zm-65.92089-23.54291c-.07115,.2993-.25637,.55076-.52255,.70654l-100.78447,59.5902c-.2993,.17786-.65748,.20608-.98622,.07973-.31279-.12144-.54953-.37167-.64644-.68815-4.39505-14.28423-3.67747-29.10327,2.0767-42.85637,6.72444-16.07267,18.35913-28.43598,32.76112-34.81328,7.24699-3.20766,14.89264-4.83419,22.72597-4.83419,8.04308,0,16.21128,1.71239,24.28012,5.0881,8.40494,3.51555,16.62711,10.13205,20.94611,16.85404,.16805,.2625,.2208,.57161,.14965,.87337Z"/></svg>