<?xml version="1.0" encoding="UTF-8"?><svg id="uuid-04aabc78-a512-4154-9afc-2fa3727c867a" xmlns="http://www.w3.org/2000/svg" xmlns:xlink="http://www.w3.org/1999/xlink" viewBox="0 0 679.57275 743.25836"><defs><style>.uuid-af65c9bd-523b-4b27-b4c7-dd4e3633ea14{fill:url(#uuid-c525d19b-b0cc-4684-933c-4d89931df33d);}</style><linearGradient id="uuid-c525d19b-b0cc-4684-933c-4d89931df33d" x1="485.01672" y1="144.73162" x2="199.74367" y2="-171.10629" gradientTransform="translate(0 239.44681) scale(1 -1)" gradientUnits="userSpaceOnUse"><stop offset="0" stop-color="#1e47c4"/><stop offset=".16055" stop-color="#204cc1"/><stop offset=".3525" stop-color="#285abb"/><stop offset=".5605" stop-color="#3572b1"/><stop offset=".77981" stop-color="#4694a4"/><stop offset="1" stop-color="#5dbe93"/></linearGradient></defs><path class="uuid-af65c9bd-523b-4b27-b4c7-dd4e3633ea14" d="M527.04762,261.89414l-.00609-1.57246-.44053,.00308c-.96677-70.86779-28.97733-136.40022-78.97178-184.66924C397.10248,26.86642,328.80139,0,255.30262,0c-45.51872,0-88.01799,8.9514-126.31383,26.60334-9.9487,4.58278-16.77393,13.70548-18.2546,24.40373l-5.02944,36.38991c-.3304,2.38012,.73729,4.62867,2.79005,5.86767,2.065,1.24511,4.57665,1.13804,6.556-.27838,38.82201-27.92188,86.01115-42.08013,140.25181-42.08013,125.68363,0,220.46263,91.65547,220.46263,213.19685,0,57.55082-22.08481,111.96894-62.18254,153.23532-2.29445,2.36177-4.67149,4.61033-7.29329,7.07299-9.00035,8.13763-18.60644,15.29937-28.55819,21.28632-28.3563,17.04924-60.94356,26.06181-94.23443,26.06181-44.06561,0-86.64438-15.87142-119.89551-44.69272-10.43821-9.04317-19.87602-19.31618-28.05648-30.53141-.45583-.62103-.61797-1.38584-.45889-2.15372,.15909-.7801,.64244-1.4562,1.32771-1.86005L404.42017,234.05486c8.39462-4.9652,12.80299-14.39383,11.22749-24.02439-6.67531-40.74631-49.06136-78.3385-87.48263-94.41492-51.38949-21.49742-106.22672-21.58308-154.39476-.2478-46.95047,20.78766-84.60691,60.43877-106.034,111.65077-21.31386,50.94283-21.16091,107.25464,.4283,158.5676,21.50356,51.11721,61.74507,91.17209,113.23244,112.74295,31.66334,15.4095,66.96724,23.55326,102.09977,23.55326,29.72071,0,59.95232-5.86156,87.42143-16.95441,11.99842-4.84586,24.56893-11.37743,39.56541-20.5582,12.14223-7.43402,23.56243-16.16209,33.94862-25.93646,10.97358-10.33112,21.44235-22.40603,31.11884-35.89125,.85351-1.18699,2.13842-1.30017,3.06538-1.00037,.94226,.2998,1.9518,1.1564,1.95484,2.65849l.16212,52.01966c.07033,22.60179,18.48097,40.93899,41.07059,40.93899h.12848c3.26114-.01225,5.9105-2.67684,5.90129-5.9411l-.78623-249.32366,.00008,.00011Zm-177.59492-58.71639c-.17745,.74646-.63937,1.37362-1.30325,1.76213L96.79137,353.55878c-.74646,.44358-1.63976,.51398-2.45965,.19884-.7801-.30289-1.37054-.92696-1.61223-1.71627-10.96133-35.62509-9.17166-72.58403,5.17932-106.88447,16.77086-40.08552,45.78799-70.91978,81.70675-86.82487,18.07412-7.99995,37.14248-12.05653,56.67893-12.05653,20.05956,0,40.43121,4.27072,60.55501,12.68981,20.96205,8.76783,41.46827,25.26949,52.23992,42.03423,.41911,.65467,.55067,1.4256,.37321,2.17819l.00008,.00004Z"/><g><path d="M57.75,630.16754v11.99023H0v-76.99999H56.20996v11.99023H14.30029v20.01953H51.47998v11.77051H14.30029v21.22949H57.75Z"/><path d="M79.19971,565.15778h14.30029v64.89941h40.25977v12.10059h-54.56006v-76.99999Z"/><path d="M150.58936,565.15778h14.30029v76.99999h-14.30029v-76.99999Z"/><path d="M251.01807,630.05719v12.10059h-65.67041v-9.56934l45.32031-55.33008h-44.55029v-12.10059h63.47021v9.56934l-45.31982,55.33008h46.75Z"/><path d="M319.54688,624.33844h-38.5l-7.58984,17.81934h-14.73975l34.6499-77h14.08008l34.75977,77h-14.95996l-7.7002-17.81934Zm-4.72998-11.2207l-14.52002-33.66016-14.40967,33.66016h28.92969Z"/><path d="M422.17627,609.10211c2.49219,3.26465,3.73975,7.31543,3.73975,12.15625,0,6.67383-2.56738,11.82422-7.69971,15.45508-5.13379,3.62891-12.61377,5.44434-22.43994,5.44434h-38.28027v-76.99999h36.08008c9.09229,0,16.09619,1.77832,21.01025,5.33496,4.91211,3.55762,7.36963,8.45312,7.36963,14.68555,0,3.81348-.87988,7.18749-2.63965,10.11913-1.76025,2.93359-4.18018,5.20801-7.26025,6.82031,4.25244,1.39453,7.62598,3.72266,10.12012,6.98438Zm-50.37988-32.72461v21.23047h20.23975c4.98633,0,8.81738-.89746,11.49512-2.69531,2.67627-1.7959,4.01514-4.41699,4.01514-7.86523,0-3.51953-1.33887-6.17676-4.01514-7.97461-2.67773-1.7959-6.50879-2.69531-11.49512-2.69531,0,0-20.23975,0-20.23975,0Zm39.70996,43.4502c0-7.40625-5.53809-11.11035-16.60986-11.11035h-23.1001v22.2207h23.1001c11.07178,0,16.60986-3.70312,16.60986-11.11035Z"/><path d="M504.45459,630.16754v11.99023h-57.75v-76.99999h56.20996v11.99023h-41.90967v20.01953h37.17969v11.77051h-37.17969v21.22949h43.44971Z"/><path d="M541.52441,577.25836h-25.52002v-12.10059h65.33984v12.10059h-25.52002v64.89941h-14.2998v-64.89941Z"/><path d="M666.04346,565.15778v76.99999h-14.30078v-33h-39.81934v33h-14.30029v-76.99999h14.30029v31.79003h39.81934v-31.79004s14.30078,0,14.30078,0Z"/><path d="M14.30029,677.14801v23.42969H51.47998v12.10059H14.30029v29.47949H0v-77H56.20996v11.99023H14.30029Z"/><path d="M122.6499,742.15778l-15.72998-22.5498c-.66016,.07422-1.65039,.10938-2.97021,.10938h-17.37988v22.44043h-14.30029v-77h31.68018c6.67236,0,12.48486,1.10059,17.43506,3.2998,4.94971,2.2002,8.74512,5.35352,11.38477,9.45996,2.64014,4.1084,3.95996,8.98438,3.95996,14.62988,0,5.79492-1.4126,10.78027-4.23486,14.96094-2.82373,4.17969-6.875,7.29688-12.15479,9.34961l17.70996,25.2998h-15.3999Zm-5.17041-60.94043c-3.22754-2.63965-7.95752-3.95898-14.18994-3.95898h-16.71973v30.68945h16.71973c6.23242,0,10.9624-1.33789,14.18994-4.01562,3.22607-2.67578,4.84033-6.4707,4.84033-11.38477,0-4.91211-1.61426-8.68945-4.84033-11.33008Z"/><path d="M204.81787,724.33844h-38.5l-7.58984,17.81934h-14.73975l34.6499-77h14.08008l34.75977,77h-14.95996l-7.7002-17.81934Zm-4.72998-11.2207l-14.52002-33.66016-14.40967,33.66016h28.92969Z"/><path d="M307.88721,665.15778v77h-11.76953l-42.46045-52.13965v52.13965h-14.18994v-77h11.77002l42.45996,52.13965v-52.13965h14.18994Z"/><path d="M345.3418,738.14313c-6.27002-3.41016-11.18408-8.12109-14.74023-14.13477-3.55762-6.0127-5.33496-12.79688-5.33496-20.35059,0-7.55176,1.79639-14.33594,5.39014-20.35059,3.59229-6.01172,8.5249-10.72461,14.79492-14.13477s13.29102-5.11523,21.06494-5.11523c6.30615,0,12.0625,1.10059,17.27002,3.30078,5.20605,2.19922,9.60645,5.38965,13.2002,9.57031l-9.24023,8.68945c-5.57373-6.01172-12.42969-9.01953-20.56982-9.01953-5.27979,0-10.00977,1.1543-14.18994,3.46484-4.18018,2.30957-7.44385,5.51855-9.79004,9.625-2.34766,4.10742-3.52002,8.76367-3.52002,13.96973,0,5.20801,1.17236,9.86426,3.52002,13.96973,2.34619,4.10742,5.60986,7.31543,9.79004,9.625,4.18018,2.31055,8.91016,3.46484,14.18994,3.46484,8.14014,0,14.99609-3.04199,20.56982-9.12891l9.24023,8.79883c-3.59375,4.18066-8.0127,7.37109-13.25488,9.57031-5.24414,2.2002-11.01904,3.30078-17.3252,3.30078-7.77393,0-14.79492-1.70508-21.06494-5.11523Z"/><path d="M412.93555,665.15778h14.30029v77h-14.30029v-77Z"/><path d="M456.87939,740.72711c-5.53809-1.68555-9.91895-3.92188-13.14502-6.70898l4.94971-11.11035c3.15234,2.49414,7.02148,4.52832,11.60498,6.10449,4.58252,1.57812,9.18506,2.36523,13.80518,2.36523,5.72021,0,9.99121-.91602,12.81494-2.75,2.82227-1.83203,4.23486-4.25195,4.23486-7.25977,0-2.2002-.78857-4.01562-2.36475-5.44531-1.57764-1.42969-3.5752-2.54688-5.99512-3.35449-2.41992-.80566-5.71973-1.72168-9.8999-2.75-5.86768-1.39258-10.61523-2.78613-14.24512-4.18066-3.62988-1.3916-6.74756-3.57422-9.3501-6.54492-2.60352-2.96973-3.90479-6.98438-3.90479-12.04492,0-4.25195,1.15479-8.12109,3.46484-11.60449,2.31006-3.48242,5.79248-6.25098,10.4502-8.30566,4.65625-2.05176,10.35693-3.08008,17.10498-3.08008,4.69238,0,9.31201,.58789,13.85986,1.76074,4.54639,1.17383,8.47021,2.86035,11.77002,5.05957l-4.50977,11.11035c-3.37402-1.97949-6.89404-3.48242-10.56006-4.51074-3.66797-1.02539-7.22412-1.53906-10.66992-1.53906-5.64795,0-9.84521,.95312-12.59521,2.85938-2.75,1.9082-4.125,4.4375-4.125,7.58984,0,2.20117,.78711,3.99805,2.36523,5.39062,1.57568,1.39355,3.57471,2.49414,5.99463,3.2998,2.42041,.80762,5.72021,1.72363,9.90039,2.75,5.71973,1.32031,10.41211,2.69531,14.07959,4.125,3.6665,1.43066,6.80127,3.6123,9.40527,6.54492,2.60205,2.93457,3.90479,6.89355,3.90479,11.87988,0,4.25391-1.15479,8.10352-3.46484,11.55078s-5.81299,6.19727-10.50488,8.25c-4.69385,2.05176-10.41406,3.08008-17.16016,3.08008-5.93994,0-11.67871-.84473-17.21484-2.53125Z"/><path d="M536.18896,738.14313c-6.27002-3.41016-11.18408-8.12109-14.74023-14.13477-3.55762-6.0127-5.33496-12.79688-5.33496-20.35059,0-7.55176,1.79639-14.33594,5.39014-20.35059,3.59229-6.01172,8.5249-10.72461,14.79492-14.13477s13.29102-5.11523,21.06494-5.11523c6.30615,0,12.0625,1.10059,17.27002,3.30078,5.20605,2.19922,9.60645,5.38965,13.2002,9.57031l-9.24023,8.68945c-5.57373-6.01172-12.42969-9.01953-20.56982-9.01953-5.27979,0-10.00977,1.1543-14.18994,3.46484-4.18018,2.30957-7.44385,5.51855-9.79004,9.625-2.34766,4.10742-3.52002,8.76367-3.52002,13.96973,0,5.20801,1.17236,9.86426,3.52002,13.96973,2.34619,4.10742,5.60986,7.31543,9.79004,9.625,4.18018,2.31055,8.91016,3.46484,14.18994,3.46484,8.14014,0,14.99609-3.04199,20.56982-9.12891l9.24023,8.79883c-3.59375,4.18066-8.0127,7.37109-13.25488,9.57031-5.24414,2.2002-11.01904,3.30078-17.3252,3.30078-7.77393,0-14.79492-1.70508-21.06494-5.11523Z"/><path d="M616.87305,738.14313c-6.30811-3.41016-11.25781-8.14062-14.8501-14.19043-3.59375-6.0498-5.39014-12.81543-5.39014-20.29492s1.79639-14.24512,5.39014-20.29492c3.59229-6.0498,8.54199-10.78027,14.8501-14.19043,6.30615-3.41016,13.38232-5.11523,21.22998-5.11523,7.84619,0,14.92285,1.70508,21.22949,5.11523s11.25586,8.12305,14.84961,14.13477c3.59375,6.01465,5.39062,12.79883,5.39062,20.35059,0,7.55371-1.79688,14.33789-5.39062,20.35059-3.59375,6.01367-8.54297,10.72461-14.84961,14.13477s-13.3833,5.11523-21.22949,5.11523c-7.84766,0-14.92383-1.70508-21.22998-5.11523Zm35.09033-10.89062c4.10547-2.30957,7.33203-5.53516,9.67969-9.67969,2.3457-4.14258,3.51953-8.78125,3.51953-13.91504,0-5.13184-1.17383-9.77051-3.51953-13.91504-2.34766-4.14258-5.57422-7.37012-9.67969-9.67969-4.1084-2.31055-8.72803-3.46484-13.86035-3.46484-5.13379,0-9.75391,1.1543-13.85986,3.46484-4.10791,2.30957-7.33398,5.53711-9.68018,9.67969-2.34766,4.14453-3.52002,8.7832-3.52002,13.91504,0,5.13379,1.17236,9.77246,3.52002,13.91504,2.34619,4.14453,5.57227,7.37012,9.68018,9.67969,4.10596,2.31055,8.72607,3.46484,13.85986,3.46484,5.13232,0,9.75195-1.1543,13.86035-3.46484Z"/></g></svg>